<?xml version="1.0" standalone="no"?>
<!DOCTYPE svg PUBLIC "-//W3C//DTD SVG 1.1//EN" "http://www.w3.org/Graphics/SVG/1.1/DTD/svg11.dtd" >
<svg xmlns="http://www.w3.org/2000/svg">
<metadata></metadata>
<defs>
<font id="psl_kittithada_probold" horiz-adv-x="0" >
<font-face units-per-em="2048" ascent="1638" descent="-410" />
<missing-glyph horiz-adv-x="573" />
<glyph unicode="&#xe37;&#xe48;" d="M-696 922v102h348v102h102v-102h62v102h123v-204h-635zM-266 1188v184h123v-184h-123z" />
<glyph unicode="&#xd;" horiz-adv-x="573" />
<glyph unicode=" "  horiz-adv-x="573" />
<glyph unicode="&#x09;" horiz-adv-x="573" />
<glyph unicode="&#xa0;" horiz-adv-x="573" />
<glyph unicode="!" horiz-adv-x="373" d="M92 86q0 19 7.5 36.5t20.5 30.5t30 21t36 8t36.5 -8t30.5 -21t20.5 -30.5t7.5 -36.5t-7.5 -36.5t-20.5 -30.5t-30.5 -21t-36.5 -8t-36 8t-30 21t-20.5 30.5t-7.5 36.5zM117 815v266h141v-266l-33 -539h-78z" />
<glyph unicode="&#x22;" horiz-adv-x="590" d="M111 1081h141l-27 -471h-88zM340 1081h139l-24 -471h-93z" />
<glyph unicode="#" horiz-adv-x="784" d="M23 301v115h161l37 221h-145v115h166l49 278h108l-49 -278h170l49 278h111l-49 -278h127v-115h-148l-39 -221h142v-115h-162l-55 -301h-105l51 301h-170l-55 -301h-104l49 301h-139zM293 416h172l37 221h-172z" />
<glyph unicode="$" horiz-adv-x="784" d="M63 279l134 30q1 -46 16.5 -84t42.5 -65.5t63 -42.5t78 -15t77.5 14.5t61 40t40 60.5t14.5 76q0 100 -58 151q-15 16 -45.5 34t-76.5 40l-72 33q-54 25 -93.5 49.5t-64.5 50.5q-35 35 -52 79t-17 95q0 122 82 197q77 71 190 80v131h70v-131q167 -18 237 -160l-104 -63 q-65 98 -183 98q-63 0 -110 -41q-51 -42 -51 -111q0 -96 143 -155l76 -31q127 -54 186 -117q74 -83 74 -219q0 -65 -20 -120t-56 -97t-85 -69t-107 -35v-142h-70v137q-126 7 -211 86q-92 85 -109 216z" />
<glyph unicode="%" horiz-adv-x="965" d="M14 856q0 102 72 174q75 72 172 72q100 0 172 -72t72 -174q0 -101 -74 -172q-72 -72 -170 -72q-97 0 -172 72q-72 72 -72 172zM96 856q0 -33 13 -62t35 -50t51.5 -33.5t62.5 -12.5t62.5 12.5t51.5 33.5t35 50t13 62t-13 62t-35 51t-51.5 34.5t-62.5 12.5t-62.5 -12.5 t-51.5 -34.5t-35 -51t-13 -62zM143 10l615 1094l65 -33l-614 -1094zM463 223q0 103 72 174q75 72 172 72q98 0 172 -72q71 -71 71 -174q0 -102 -73 -172q-74 -71 -170 -71q-98 0 -172 71q-72 70 -72 172zM547 223q0 -32 12.5 -60t34 -50t51 -34.5t62.5 -12.5t62.5 12.5 t51 34.5t34.5 50t13 60q0 34 -12.5 63t-34.5 50.5t-51 34t-63 12.5q-33 0 -62.5 -12.5t-51 -34t-34 -50.5t-12.5 -63z" />
<glyph unicode="&#x26;" horiz-adv-x="940" d="M63 295q0 100 62 180q29 37 75.5 76.5t112.5 81.5q-123 126 -123 233q0 55 19 99t52 75t78.5 47.5t98.5 16.5q50 0 94.5 -16t77.5 -45t52.5 -71t19.5 -93q0 -79 -61 -152q-39 -48 -132 -119l220 -270l112 135l92 -78l-127 -153l189 -242h-162l-113 145 q-150 -168 -315 -168q-132 0 -227 91q-95 89 -95 227zM186 295q0 -77 60 -137t135 -60q102 0 240 144l-230 293q-205 -139 -205 -240zM319 883q0 -72 99 -178l86 69q53 56 53 107q0 116 -121 116q-24 0 -45.5 -8.5t-37.5 -23.5t-25 -36t-9 -46z" />
<glyph unicode="'" horiz-adv-x="365" d="M113 1081h141l-27 -471h-88z" />
<glyph unicode="(" horiz-adv-x="422" d="M68 449q0 169 51.5 330t159.5 323h127q-87 -126 -142 -295q-61 -184 -61 -358q0 -175 61 -359q55 -169 142 -295h-127q-108 162 -159.5 323t-51.5 331z" />
<glyph unicode=")" horiz-adv-x="422" d="M16 -205q87 126 142 295q61 184 61 359q0 174 -61 358q-55 169 -142 295h127q108 -162 159.5 -323t51.5 -330q0 -170 -51.5 -331t-159.5 -323h-127z" />
<glyph unicode="*" horiz-adv-x="698" d="M96 848l37 108l164 -59l-6 184h117l-7 -184l168 59l33 -108l-170 -53l111 -146l-90 -71l-99 180l-100 -183l-96 72l108 148z" />
<glyph unicode="+" horiz-adv-x="799" d="M61 317v103h287v287h103v-287h286v-103h-286v-286h-103v286h-287z" />
<glyph unicode="," horiz-adv-x="319" d="M72 72q0 16 7 31.5t19 27.5t28 19.5t34 7.5q22 0 40.5 -8.5t32 -23t20.5 -34t7 -41.5q0 -131 -151 -219l-27 33q45 26 73.5 58.5t39.5 74.5q-16 -8 -41 -8q-16 0 -31 7t-26 18t-18 26t-7 31z" />
<glyph unicode="-" horiz-adv-x="457" d="M72 317v103h313v-103h-313z" />
<glyph unicode="." horiz-adv-x="319" d="M76 74q0 35 24.5 59.5t59.5 24.5t59.5 -24.5t24.5 -59.5t-24.5 -59.5t-59.5 -24.5t-59.5 24.5t-24.5 59.5z" />
<glyph unicode="/" horiz-adv-x="745" d="M29 -143l587 1388l101 -39l-584 -1386z" />
<glyph unicode="0" horiz-adv-x="799" d="M33 541q0 115 20 209t62 172q99 182 284 182q189 0 285 -182q80 -152 80 -381t-80 -381q-101 -183 -285 -183q-187 0 -284 183q-42 78 -62 172t-20 209zM160 543q0 -172 49 -289q64 -156 190 -156t191 156q49 117 49 289t-49 291q-65 155 -191 155q-125 0 -190 -155 q-49 -119 -49 -291z" />
<glyph unicode="1" horiz-adv-x="799" d="M147 958l72 123h258v-1081h-125v958h-205z" />
<glyph unicode="2" horiz-adv-x="799" d="M53 0l459 580q94 118 94 194q0 45 -13.5 83t-40 65.5t-64.5 43t-87 15.5q-39 0 -74 -15.5t-62 -42.5t-44.5 -64.5t-21.5 -80.5h-131q9 77 36 137.5t69.5 102.5t100 64t127.5 22q77 0 138 -24t104 -66.5t65.5 -102t22.5 -131.5q0 -124 -78 -223l-344 -434h426v-123h-682z " />
<glyph unicode="3" horiz-adv-x="799" d="M66 266h129q5 -39 23 -71t45 -54.5t61 -34.5t71 -12q43 0 80 16.5t64 45t42 67.5t15 84q0 50 -15.5 89.5t-44.5 66.5t-70.5 41t-92.5 12v113q207 3 207 172q0 40 -14 74.5t-38.5 59t-58 38.5t-72.5 14q-140 0 -174 -153h-129q43 270 307 270q64 0 120 -21t96.5 -59.5 t64 -92t23.5 -118.5q0 -156 -134 -242q150 -83 150 -270q0 -145 -96 -235q-95 -89 -240 -89q-127 0 -215 76q-95 80 -104 213z" />
<glyph unicode="4" horiz-adv-x="799" d="M4 158l639 968v-854h119v-114h-119v-158h-125v158h-514zM219 272h299v457z" />
<glyph unicode="5" horiz-adv-x="799" d="M31 168l106 82q15 -35 38.5 -62.5t53 -47t62.5 -30t67 -10.5q102 0 179 78q75 75 75 184q0 108 -75 183q-77 78 -177 78q-118 0 -194 -97h-29v555h506v-123h-381v-253q65 34 139 34q148 0 242 -112q94 -109 94 -267q0 -168 -112 -276q-113 -107 -275 -107q-49 0 -96 13 t-88.5 37.5t-76 60t-58.5 80.5z" />
<glyph unicode="6" horiz-adv-x="799" d="M47 322q0 131 113 286l358 496l103 -57l-287 -400q27 15 80 15q144 3 237 -95q92 -94 92 -235q0 -147 -102 -252q-51 -51 -111 -77t-133 -26q-144 0 -247 101q-103 100 -103 244zM172 326q0 -91 66 -160q68 -68 157 -68q45 0 83.5 17t72.5 49q67 64 67 153q0 100 -69 166 q-68 68 -154 68q-83 0 -153 -70q-70 -67 -70 -155z" />
<glyph unicode="7" horiz-adv-x="799" d="M43 31l551 930h-543v120h756l-655 -1104z" />
<glyph unicode="8" horiz-adv-x="799" d="M66 301q0 183 167 260q-141 96 -141 242q0 133 88 215q92 86 217 86q126 0 215 -86q88 -81 88 -215q0 -153 -137 -242q166 -73 166 -260q0 -145 -96 -235q-48 -45 -107.5 -67t-128.5 -22q-140 0 -235 89q-96 90 -96 235zM190 301q0 -41 16.5 -77.5t44.5 -64.5t65.5 -44.5 t80.5 -16.5q83 0 146 60q61 61 61 143q0 43 -17 80t-45.5 64.5t-66 43t-78.5 15.5t-78 -15.5t-66 -43t-46 -64.5t-17 -80zM217 803q0 -37 14.5 -70.5t39 -59t57 -40.5t69.5 -15q71 0 127 56q56 59 56 129q0 39 -14.5 73t-39.5 59t-58.5 39.5t-70.5 14.5t-69.5 -14.5 t-57 -39.5t-39 -59t-14.5 -73z" />
<glyph unicode="9" horiz-adv-x="799" d="M57 748q0 150 101 251q100 105 248 105q155 0 249 -100q97 -100 97 -246q0 -63 -28 -134.5t-85 -150.5l-354 -496l-105 60l287 395q-45 -16 -105 -16q-127 0 -217 100q-88 100 -88 232zM182 758q0 -95 70 -162q72 -66 154 -66q49 0 89.5 18.5t70 49.5t45.5 72.5t16 87.5 q0 90 -64 157q-65 68 -153 68q-97 0 -162 -68q-66 -66 -66 -157z" />
<glyph unicode=":" horiz-adv-x="319" d="M76 74q0 35 24.5 59.5t59.5 24.5t59.5 -24.5t24.5 -59.5t-24.5 -59.5t-59.5 -24.5t-59.5 24.5t-24.5 59.5zM76 582q0 35 24.5 59.5t59.5 24.5t59.5 -24.5t24.5 -59.5t-24.5 -59.5t-59.5 -24.5t-59.5 24.5t-24.5 59.5z" />
<glyph unicode=";" horiz-adv-x="319" d="M72 72q0 16 7 31.5t19 27.5t28 19.5t34 7.5q22 0 40.5 -8.5t32 -23t20.5 -34t7 -41.5q0 -131 -151 -219l-27 33q45 26 73.5 58.5t39.5 74.5q-16 -8 -41 -8q-16 0 -31 7t-26 18t-18 26t-7 31zM76 582q0 35 24.5 59.5t59.5 24.5t59.5 -24.5t24.5 -59.5t-24.5 -59.5 t-59.5 -24.5t-59.5 24.5t-24.5 59.5z" />
<glyph unicode="&#x3c;" horiz-adv-x="799" d="M43 317v101l713 297v-133l-533 -215l533 -213v-134z" />
<glyph unicode="=" horiz-adv-x="799" d="M61 195v102h676v-102h-676zM61 440v103h676v-103h-676z" />
<glyph unicode="&#x3e;" horiz-adv-x="799" d="M43 20v134l537 213l-537 215v133l713 -297v-101z" />
<glyph unicode="?" horiz-adv-x="770" d="M53 813q0 123 97 205q96 84 239 84q144 0 236 -84q84 -81 84 -197q0 -103 -123 -229t-123 -203v-94h-135v115q0 90 121 208q122 120 122 205q0 60 -47 107q-52 49 -139 49q-40 0 -74 -11t-59 -31.5t-39 -50t-14 -65.5q0 -34 10 -67l-141 -33q-8 23 -11.5 46t-3.5 46z M295 92q0 45 28.5 73t71.5 28q45 0 73 -28t28 -73q0 -43 -28 -72.5t-73 -29.5q-21 0 -39 8t-31.5 21.5t-21.5 32.5t-8 40z" />
<glyph unicode="@" horiz-adv-x="1126" d="M41 541q0 237 158 401q157 162 391 162q209 0 352 -137q143 -134 143 -318q0 -97 -21.5 -171.5t-66.5 -131.5q-101 -128 -221 -125q-13 1 -26.5 8t-24.5 19t-18.5 27.5t-8.5 33.5q-91 -88 -194 -88q-98 0 -168 76q-72 78 -72 197q0 131 82 231q82 102 209 102 q63 0 112 -23.5t81 -74.5l18 86h102l-71 -369q-13 -56 -13 -79q0 -45 33 -45q50 0 103 86q51 88 51 188q0 178 -111 289q-110 104 -276 104q-178 0 -303 -131t-125 -317q0 -192 133 -322q133 -127 319 -127q184 0 269 70l88 -90q-125 -95 -355 -95q-248 0 -409 160 q-160 160 -160 404zM375 496q0 -33 10.5 -63t29.5 -52.5t45 -35.5t58 -13q167 0 193 200q10 87 -30 136t-116 49q-42 0 -77 -18.5t-60 -49.5t-39 -70.5t-14 -82.5z" />
<glyph unicode="A" horiz-adv-x="956" d="M-18 0l499 1126l494 -1126h-139l-121 270h-473l-119 -270h-141zM297 391h365l-183 440z" />
<glyph unicode="B" horiz-adv-x="743" d="M80 0v1081h147q383 0 383 -297q0 -134 -102 -204q85 -22 141 -101q58 -79 58 -176q0 -150 -113 -233q-94 -70 -250 -70h-264zM211 121h119q248 0 248 190q0 185 -246 185h-121v-375zM211 602h51q54 0 94 8t66 25q67 40 67 147q0 179 -223 179h-55v-359z" />
<glyph unicode="C" horiz-adv-x="905" d="M31 535q0 241 157 405q161 164 402 164q148 0 270 -74v-156q-122 107 -285 107q-175 0 -294 -131q-119 -129 -119 -311q0 -179 119 -310q119 -129 292 -129q156 0 287 113v-160q-130 -76 -282 -76q-120 0 -216.5 39.5t-175.5 120.5q-155 160 -155 398z" />
<glyph unicode="D" horiz-adv-x="903" d="M80 0v1081h211q255 0 416 -133q172 -145 172 -401q0 -267 -172 -412q-161 -135 -420 -135h-207zM211 123h41q220 0 348 92q148 109 148 326q0 417 -496 417h-41v-835z" />
<glyph unicode="E" horiz-adv-x="705" d="M88 0v1081h565v-123h-432v-303h414v-123h-414v-409h432v-123h-565z" />
<glyph unicode="F" horiz-adv-x="639" d="M88 0v1081h508v-123h-377v-305h361v-123h-361v-530h-131z" />
<glyph unicode="G" horiz-adv-x="1065" d="M20 537q0 234 154 401q157 166 387 166q65 0 129.5 -16t123 -46t108 -73.5t84.5 -98.5l-107 -65q-138 176 -332 176q-174 0 -297 -129q-120 -126 -120 -309q0 -88 29 -164.5t89 -145.5q121 -133 289 -133q124 0 227 95q106 93 115 227h-338v123h483v-43q0 -224 -139 -375 q-138 -150 -356 -150q-221 0 -375 166q-154 167 -154 394z" />
<glyph unicode="H" horiz-adv-x="911" d="M80 0v1081h131v-436h487v436h131v-1081h-131v518h-487v-518h-131z" />
<glyph unicode="I" horiz-adv-x="301" d="M86 0v1081h131v-1081h-131z" />
<glyph unicode="J" horiz-adv-x="487" d="M-37 33l64 112q52 -43 112 -43q98 0 131 105q8 28 12.5 74t4.5 112v688h131v-688q0 -416 -285 -416q-99 0 -170 56z" />
<glyph unicode="K" horiz-adv-x="813" d="M88 0v1081h133v-479l445 479h168l-465 -487l473 -594h-166l-393 500l-62 -62v-438h-133z" />
<glyph unicode="L" horiz-adv-x="514" d="M88 0v1081h133v-962h318v-119h-451z" />
<glyph unicode="M" horiz-adv-x="1163" d="M8 0l215 1126l361 -852l358 852l213 -1126h-135l-119 719l-317 -742l-318 740l-123 -717h-135z" />
<glyph unicode="N" horiz-adv-x="1061" d="M78 0v1133l776 -848v794h131v-1124l-776 848v-803h-131z" />
<glyph unicode="O" horiz-adv-x="1124" d="M16 541q0 230 160 397q160 166 385 166q226 0 385 -166q160 -166 160 -397q0 -238 -158 -402q-156 -162 -387 -162q-230 0 -387 162q-78 82 -118 181.5t-40 220.5zM147 541q0 -185 121 -312q124 -127 293 -127q172 0 293 127t121 312q0 183 -117 309q-115 127 -297 127 q-179 0 -297 -127q-117 -126 -117 -309z" />
<glyph unicode="P" horiz-adv-x="682" d="M88 0v1081h162q115 0 198 -20t134 -62q92 -74 92 -231q0 -160 -111 -244q-95 -71 -258 -71h-84v-453h-133zM221 573h51q279 0 279 199q0 189 -285 189h-45v-388z" />
<glyph unicode="Q" horiz-adv-x="1124" d="M16 541q0 230 160 397q160 166 385 166q226 0 385 -166q160 -166 160 -397q0 -234 -164 -398l166 -166h-162l-90 97q-139 -97 -295 -97q-230 0 -387 162q-78 82 -118 181.5t-40 220.5zM147 541q0 -185 121 -312q124 -127 293 -127q102 0 205 64l-240 242h160l168 -170 q121 118 121 303q0 183 -117 309q-115 127 -297 127q-179 0 -297 -127q-117 -126 -117 -309z" />
<glyph unicode="R" horiz-adv-x="745" d="M88 0v1081h215q165 0 262 -73q54 -42 81.5 -99.5t27.5 -136.5q0 -56 -17.5 -106t-50 -90t-78.5 -67.5t-104 -37.5l330 -471h-160l-309 457h-64v-457h-133zM221 569h51q279 0 279 197q0 195 -285 195h-45v-392z" />
<glyph unicode="S" horiz-adv-x="727" d="M35 279l133 30q1 -46 16.5 -84t42.5 -65.5t63.5 -42.5t78.5 -15t77 14.5t60.5 40t40 60.5t14.5 76q0 100 -57 151q-31 31 -123 74l-72 33q-54 25 -93.5 49.5t-63.5 50.5q-36 35 -53 79t-17 95q0 127 88 203t213 76q199 0 279 -162l-105 -63q-32 49 -77 73.5t-105 24.5 q-64 0 -111 -41q-51 -42 -51 -111q0 -96 143 -155l76 -31q128 -54 186 -117q38 -42 56 -96t18 -123q0 -145 -94 -235q-92 -91 -227 -91q-64 0 -121.5 21.5t-102.5 61t-74.5 95t-37.5 124.5z" />
<glyph unicode="T" horiz-adv-x="612" d="M-12 958v123h637v-123h-254v-958h-129v958h-254z" />
<glyph unicode="U" horiz-adv-x="909" d="M72 397v684h131v-639q0 -147 55 -235q64 -105 197 -105t198 105q56 89 56 235v639h131v-684q0 -186 -101 -299q-103 -121 -284 -121q-177 0 -281 119q-102 120 -102 301z" />
<glyph unicode="V" horiz-adv-x="879" d="M-20 1081h143l319 -798l314 798h143l-457 -1138z" />
<glyph unicode="W" horiz-adv-x="1421" d="M-20 1081h141l297 -772l293 795l297 -795l292 772h142l-434 -1124l-297 795l-293 -795z" />
<glyph unicode="X" horiz-adv-x="784" d="M-14 0l340 567l-299 514h147l225 -395l236 395h147l-309 -516l326 -565h-146l-254 444l-268 -444h-145z" />
<glyph unicode="Y" horiz-adv-x="770" d="M-18 1081h149l256 -467l250 467h151l-337 -608v-473h-134v473z" />
<glyph unicode="Z" horiz-adv-x="745" d="M2 0l528 958h-456v123h674l-527 -958h527v-123h-746z" />
<glyph unicode="[" horiz-adv-x="459" d="M82 -229v1372h293v-119h-168v-1135h168v-118h-293z" />
<glyph unicode="\" horiz-adv-x="745" d="M33 1245h117l561 -1245h-117z" />
<glyph unicode="]" horiz-adv-x="459" d="M82 -111h170v1135h-170v119h293v-1372h-293v118z" />
<glyph unicode="^" horiz-adv-x="784" d="M35 442l278 639h156l279 -639h-130l-225 531l-229 -531h-129z" />
<glyph unicode="_" horiz-adv-x="799" d="M0 -102h799v-103h-799v103z" />
<glyph unicode="`" horiz-adv-x="479" d="M96 987l115 66l174 -238l-59 -39z" />
<glyph unicode="a" horiz-adv-x="756" d="M25 340q0 142 86 246q89 104 225 104q151 0 229 -108v90h125v-672h-125v90q-68 -113 -225 -113q-143 0 -231 109q-84 102 -84 254zM152 336q0 -50 14 -94.5t40.5 -77.5t65 -52.5t86.5 -19.5q49 0 88.5 18.5t67 51.5t42.5 77.5t15 96.5q0 50 -15 93.5t-42.5 76t-67 51 t-88.5 18.5q-47 0 -85 -19t-65 -51.5t-41.5 -76t-14.5 -92.5z" />
<glyph unicode="b" horiz-adv-x="756" d="M66 0v1204h124v-618q90 104 232 104q137 0 223 -104q86 -107 86 -246q0 -75 -20 -139t-62 -115q-85 -109 -231 -109q-155 0 -228 109v-86h-124zM184 336q0 -50 14.5 -94.5t41.5 -77.5t66 -52.5t87 -19.5q49 0 88.5 18.5t67 51.5t42.5 77.5t15 96.5q0 50 -15 93.5t-43 76 t-67.5 51t-87.5 18.5q-47 0 -85.5 -19t-66 -51.5t-42.5 -76t-15 -92.5z" />
<glyph unicode="c" horiz-adv-x="598" d="M25 330q0 158 102 260q51 51 115 75.5t139 24.5q51 0 94.5 -10.5t81.5 -30.5v-149q-65 71 -172 71q-51 0 -94 -18.5t-74 -50.5t-48 -75t-17 -91q0 -53 16.5 -96.5t46.5 -75t71 -49t91 -17.5q104 0 180 76v-154q-87 -43 -182 -43q-152 0 -252 99q-98 100 -98 254z" />
<glyph unicode="d" horiz-adv-x="756" d="M25 340q0 142 86 246q89 104 223 104q153 0 231 -96v610h125v-1204h-125v74q-82 -97 -225 -97t-234 109q-42 51 -61.5 115t-19.5 139zM152 336q0 -50 14 -94.5t40.5 -77.5t65 -52.5t86.5 -19.5q49 0 88.5 18.5t67 51.5t42.5 77.5t15 96.5q0 50 -15 93.5t-42.5 76t-67 51 t-88.5 18.5q-47 0 -85 -19t-65 -51.5t-41.5 -76t-14.5 -92.5z" />
<glyph unicode="e" horiz-adv-x="659" d="M25 330q0 81 21 147t61.5 113.5t100 73.5t136.5 26q149 0 229 -104q74 -95 74 -252v-21h-495q2 -45 17 -85t41 -70.5t61 -48t77 -17.5q63 0 112 32.5t81 98.5l108 -61q-101 -185 -303 -185q-144 0 -233 101q-45 51 -66.5 113.5t-21.5 138.5zM158 412h358 q-33 168 -174 168q-148 0 -184 -168z" />
<glyph unicode="f" horiz-adv-x="360" d="M43 551v121h57v284q0 265 222 265q47 0 98 -17v-129q-33 25 -78 25h-10q-66 -3 -90 -58q-17 -42 -17 -124v-246h170v-121h-170v-551h-125v551h-57z" />
<glyph unicode="g" horiz-adv-x="754" d="M23 340q0 142 86 246q89 104 223 104q154 0 231 -104v86h125v-660q0 -190 -63 -284q-77 -113 -256 -113q-69 0 -125.5 21t-98 60.5t-65.5 96t-27 127.5h125q1 -47 15.5 -83t40.5 -60.5t62 -36.5q30 -10 67 -10h12q188 6 188 247v95q-89 -95 -225 -95q-143 0 -234 109 q-42 51 -61.5 115t-19.5 139zM150 336q0 -100 55 -170q58 -76 151 -76q50 0 89.5 18.5t67 51.5t42 78t14.5 98q0 50 -15 93.5t-42.5 76t-67 51t-88.5 18.5q-47 0 -85 -19t-65 -51.5t-41.5 -76t-14.5 -92.5z" />
<glyph unicode="h" horiz-adv-x="711" d="M76 0v1204h125v-604q72 90 196 90q238 0 238 -291v-399h-125v385q0 94 -23 135q-33 55 -122 55q-100 0 -140 -88q-24 -57 -24 -182v-305h-125z" />
<glyph unicode="i" horiz-adv-x="334" d="M80 936q0 38 25.5 64t60.5 26q37 0 61.5 -26t24.5 -64q0 -18 -6.5 -33.5t-18 -27t-27.5 -18.5t-34 -7t-33.5 7t-27 18.5t-18.5 27t-7 33.5zM102 0v672h125v-672h-125z" />
<glyph unicode="j" horiz-adv-x="334" d="M80 936q0 38 25.5 64t60.5 26q37 0 61.5 -26t24.5 -64q0 -18 -6.5 -33.5t-18 -27t-27.5 -18.5t-34 -7t-33.5 7t-27 18.5t-18.5 27t-7 33.5zM102 -385v1057h125v-1057h-125z" />
<glyph unicode="k" horiz-adv-x="621" d="M86 0v1204h125v-788l244 256h163l-272 -283l301 -389h-162l-227 301l-47 -49v-252h-125z" />
<glyph unicode="l" horiz-adv-x="287" d="M82 0v1204h125v-1204h-125z" />
<glyph unicode="m" horiz-adv-x="1047" d="M72 0v672h125v-72q64 90 174 90q129 0 188 -119q71 119 197 119q219 0 219 -289v-401h-125v381q0 194 -121 194q-143 0 -143 -245v-330h-125v356q0 219 -119 219q-145 0 -145 -245v-330h-125z" />
<glyph unicode="n" horiz-adv-x="711" d="M76 0v672h125v-82q61 100 192 100q242 0 242 -291v-399h-125v385q0 94 -23 135q-33 55 -122 55q-106 0 -140 -88q-24 -57 -24 -180v-307h-125z" />
<glyph unicode="o" horiz-adv-x="723" d="M18 334q0 152 99 254t243 102q145 0 244 -102q51 -51 76 -115t25 -139q0 -153 -101 -254q-97 -103 -244 -103q-146 0 -243 103q-99 100 -99 254zM143 334q0 -48 16.5 -91t46 -74.5t69 -50t85.5 -18.5q91 0 156 68q64 70 64 166q0 97 -64 164q-63 69 -156 69 q-46 0 -85.5 -18.5t-69 -50t-46 -74t-16.5 -90.5z" />
<glyph unicode="p" horiz-adv-x="756" d="M66 -385v1057h124v-94q77 112 232 112q137 0 223 -104q86 -107 86 -246q0 -75 -20 -139t-62 -115q-85 -109 -231 -109q-144 0 -228 99v-461h-124zM184 336q0 -51 14 -93t42 -77q58 -76 153 -76q49 0 88.5 19t67 52t42.5 78t15 97q0 50 -15 93.5t-43 76t-67.5 51 t-87.5 18.5q-47 0 -85.5 -19t-66 -51.5t-42.5 -76t-15 -92.5z" />
<glyph unicode="q" horiz-adv-x="756" d="M25 340q0 142 86 246t223 104q155 0 231 -112v94h125v-1057h-125v461q-83 -99 -227 -99t-232 109q-42 51 -61.5 115t-19.5 139zM150 336q0 -52 14.5 -97t42 -78t66.5 -52t89 -19q96 0 154 76q55 70 55 170q0 49 -15 92.5t-42.5 76t-66 51.5t-85.5 19q-48 0 -87.5 -18.5 t-67 -51t-42.5 -76t-15 -93.5z" />
<glyph unicode="r" horiz-adv-x="469" d="M86 0v672h125v-90q52 108 170 108q69 0 115 -31l-60 -118q-29 26 -76 26q-149 0 -149 -237v-330h-125z" />
<glyph unicode="s" horiz-adv-x="514" d="M35 125l110 53q32 -86 119 -86q42 0 70 26t28 68q0 22 -14.5 40t-37.5 34t-51.5 30.5t-55.5 28.5q-72 39 -107 83t-35 98q0 40 15 75t42 60.5t63.5 40t78.5 14.5q134 0 182 -119l-102 -51q-21 55 -80 55q-29 0 -51.5 -19.5t-22.5 -45.5q0 -46 78 -86q66 -32 102 -51.5 t44 -24.5q77 -59 77 -149q0 -47 -16.5 -87.5t-46.5 -70.5t-71 -47t-89 -17q-174 0 -229 148z" />
<glyph unicode="t" horiz-adv-x="313" d="M20 551v121h72v297h127v-297h123v-121h-123v-551h-127v551h-72z" />
<glyph unicode="u" horiz-adv-x="690" d="M72 285v387h125v-373q0 -201 151 -201q152 0 152 201v373h125v-387q0 -308 -277 -308q-276 0 -276 308z" />
<glyph unicode="v" horiz-adv-x="590" d="M-31 672h144l180 -416l184 416h144l-328 -695z" />
<glyph unicode="w" horiz-adv-x="971" d="M-31 672h142l182 -424l194 461l193 -461l180 424h141l-321 -695l-195 451l-192 -451z" />
<glyph unicode="x" horiz-adv-x="655" d="M-31 0l291 365l-235 307h147l156 -221l155 221h148l-236 -307l291 -365h-149l-209 276l-209 -276h-150z" />
<glyph unicode="y" horiz-adv-x="647" d="M-29 672h146l217 -422l201 422h141l-522 -1057h-144l258 502z" />
<glyph unicode="z" horiz-adv-x="668" d="M-6 0l440 551h-371v121h613l-436 -551h419v-121h-665z" />
<glyph unicode="{" horiz-adv-x="444" d="M57 406v104q103 49 103 215v260q0 94 30 142.5t111 48.5h86v-121h-55q-45 0 -45 -88v-265q0 -163 -105 -245q105 -84 105 -246v-266q0 -86 45 -86h55v-121h-86q-81 0 -115 51q-26 46 -26 139v260q0 166 -103 218z" />
<glyph unicode="|" horiz-adv-x="532" d="M205 0v1204h121v-1204h-121z" />
<glyph unicode="}" horiz-adv-x="444" d="M57 -141h56q45 0 45 86v266q0 162 104 246q-104 83 -104 245v265q0 88 -45 88h-56v121h86q82 0 115 -52q27 -45 27 -139v-260q0 -166 102 -215v-104q-102 -53 -102 -218v-260q0 -93 -27 -139q-32 -51 -115 -51h-86v121z" />
<glyph unicode="~" horiz-adv-x="784" d="M33 326q90 176 215 176q38 0 80 -18.5t90 -55.5q48 -35 77 -53.5t40 -18.5q64 0 120 125l93 -75q-72 -175 -211 -175q-59 0 -160 74q-104 74 -125 74q-68 0 -127 -119z" />
<glyph unicode="&#xa4;" horiz-adv-x="840" d="M8 164l148 145q-62 83 -62 193q0 114 62 188l-148 150l76 71l145 -145q80 59 193 59q55 0 105.5 -16t82.5 -43l150 145l71 -71l-145 -150q59 -80 59 -188q0 -113 -59 -193l145 -145l-71 -76l-150 148q-15 -13 -36 -23.5t-47 -20.5q-53 -18 -105 -18q-110 0 -193 62 l-145 -148zM197 502q0 -94 63 -164q65 -68 162 -68q92 0 158 68q63 63 63 164q0 46 -16.5 87t-45.5 72t-70 49.5t-89 18.5q-96 0 -160 -67q-65 -74 -65 -160z" />
<glyph unicode="&#xa9;" horiz-adv-x="1188" d="M29 541q0 230 164 391q165 162 401 162q237 0 399 -162q166 -160 166 -391t-166 -394q-162 -159 -399 -159q-236 0 -401 159q-164 164 -164 394zM121 541q0 -194 139 -330q139 -133 334 -133t334 133q139 136 139 330t-139 327q-139 136 -334 136t-334 -136 q-139 -133 -139 -327zM291 537q0 136 92 231q94 94 231 94q146 0 222 -76v-116q-75 104 -218 104q-97 0 -167 -72q-68 -71 -68 -165q0 -97 68 -168q72 -72 167 -72q143 0 218 104v-116q-76 -76 -224 -76q-140 0 -231 94q-90 96 -90 234z" />
<glyph unicode="&#xab;" horiz-adv-x="707" d="M31 457l254 344l84 -49l-219 -295l219 -295l-84 -49zM297 457l254 344l84 -49l-219 -295l219 -295l-84 -49z" />
<glyph unicode="&#xac;" horiz-adv-x="799" d="M41 297v90h709v-268h-82v178h-627z" />
<glyph unicode="&#xad;" horiz-adv-x="799" d="M61 317v103h676v-103h-676z" />
<glyph unicode="&#xae;" horiz-adv-x="1188" d="M29 541q0 230 164 391q165 162 401 162q237 0 399 -162q166 -160 166 -391t-166 -394q-162 -159 -399 -159q-236 0 -401 159q-164 164 -164 394zM121 541q0 -194 139 -330q139 -133 334 -133t334 133q139 136 139 330t-139 327q-139 136 -334 136t-334 -136 q-139 -133 -139 -327zM377 225v621h266q217 0 217 -168q0 -154 -166 -166l162 -287h-108l-154 287h-127v-287h-90zM467 602h98q106 0 133 6q70 12 70 66q0 84 -143 84h-158v-156z" />
<glyph unicode="&#xb0;" horiz-adv-x="541" d="M66 713q0 40 15.5 77t42.5 64.5t63.5 44t78.5 16.5q43 0 80.5 -16t65 -43t43.5 -64t16 -79t-16 -79t-43.5 -64.5t-65 -43.5t-80.5 -16q-41 0 -77 15.5t-63.5 43t-43.5 64.5t-16 80zM121 713q0 -30 11.5 -57t31 -47t46 -32t56.5 -12q62 0 105 43q45 46 45 105 q0 30 -12 56.5t-32.5 46t-47.5 31t-58 11.5t-57.5 -11t-46 -30.5t-30.5 -46t-11 -57.5z" />
<glyph unicode="&#xb6;" horiz-adv-x="727" d="M0 858q0 153 94 229q90 66 248 66h389v-41h-102v-1356h-62v1356h-145v-1356h-55v805q-168 0 -263 62q-104 74 -104 235z" />
<glyph unicode="&#xb7;" horiz-adv-x="338" d="M96 449q0 30 20.5 50.5t53.5 20.5q31 0 51.5 -21.5t20.5 -49.5q0 -31 -21.5 -52.5t-50.5 -21.5q-33 0 -53.5 20.5t-20.5 53.5z" />
<glyph unicode="&#xbb;" horiz-adv-x="707" d="M74 162l219 295l-219 295l84 49l254 -344l-254 -344zM340 162l219 295l-219 295l84 49l254 -344l-254 -344z" />
<glyph unicode="&#xd7;" horiz-adv-x="799" d="M111 152l217 217l-217 217l71 71l217 -217l217 217l72 -71l-217 -217l217 -217l-72 -72l-217 217l-217 -217z" />
<glyph unicode="&#xf7;" horiz-adv-x="799" d="M61 317v103h676v-103h-676zM313 109q0 18 7 33.5t18.5 27t27 18.5t33.5 7t33.5 -7t27 -18.5t18.5 -27t7 -33.5t-7 -33.5t-18.5 -27.5t-27 -18.5t-33.5 -6.5t-33.5 6.5t-27 18.5t-18.5 27.5t-7 33.5zM313 629q0 18 7 33.5t18.5 27t27 18.5t33.5 7t33.5 -7t27 -18.5 t18.5 -27t7 -33.5t-7 -33.5t-18.5 -27t-27 -18.5t-33.5 -7t-33.5 7t-27 18.5t-18.5 27t-7 33.5z" />
<glyph unicode="&#xe00;" horiz-adv-x="205" />
<glyph unicode="&#xe01;" horiz-adv-x="819" d="M61 0v655q123 179 349 179q149 0 243 -70q105 -77 105 -207v-557h-123v541q0 43 -16.5 76t-46.5 55.5t-71.5 34.5t-90.5 12q-148 0 -226 -94v-625h-123z" />
<glyph unicode="&#xe02;" horiz-adv-x="758" d="M41 324q0 194 180 307l-102 137l100 63l158 -200q-213 -159 -213 -307q0 -48 16 -89.5t44.5 -72t68.5 -47.5t88 -17q42 0 77.5 13.5t61 37.5t39.5 56.5t14 70.5v543h123v-543q0 -126 -90 -208q-88 -82 -225 -82q-145 0 -244 96q-96 96 -96 242z" />
<glyph unicode="&#xe03;" horiz-adv-x="758" d="M14 745l72 84q58 -24 104 -73l68 63h104v-248q-198 -95 -198 -254q0 -48 16 -88.5t44.5 -69.5t68.5 -45t88 -16q42 0 77.5 13.5t61 37.5t39.5 56.5t14 70.5v543h123v-543q0 -126 -90 -208q-88 -82 -225 -82q-149 0 -244 92q-96 96 -96 239q0 91 48.5 165t150.5 134v52 l-62 -54l-45 48q-29 26 -59.5 47t-59.5 36z" />
<glyph unicode="&#xe04;" horiz-adv-x="819" d="M61 0v553q0 120 107 203q51 38 110.5 58t131.5 20q142 0 243 -80q105 -81 105 -201v-553h-123v553q0 37 -18 68t-49 52.5t-71.5 33.5t-86.5 12q-92 0 -156 -43q-70 -46 -70 -123v-80h258v-115h-258v-358h-123z" />
<glyph unicode="&#xe05;" horiz-adv-x="860" d="M61 0v567q0 55 19.5 104t54.5 85t85 57t112 21l98 -95l98 95q124 0 201 -80q70 -76 70 -187v-567h-123v567q0 54 -28 96.5t-73 55.5l-145 -144l-145 144q-45 -13 -73 -55.5t-28 -96.5v-94h279v-115h-279v-358h-123z" />
<glyph unicode="&#xe06;" horiz-adv-x="829" d="M-25 748l80 81q26 -12 49 -29t41 -40l76 59h103v-188q0 -45 -66 -99q-63 -50 -63 -94v-157q0 -77 79 -131q73 -52 166 -52q44 0 81.5 12t65 33.5t43 51.5t15.5 67v557h123v-557q0 -62 -24.5 -112.5t-68.5 -87t-104 -56.5t-131 -20q-138 0 -245 77v-63h-123v463 q0 50 63 98q66 51 66 82v25l-70 -54l-41 45q-26 26 -55 49t-60 40z" />
<glyph unicode="&#xe07;" horiz-adv-x="774" d="M0 662l121 36l168 -589q74 -3 135.5 17.5t105 60.5t67.5 98.5t24 132.5q0 301 -330 301h-27.5t-27.5 -2v112q18 2 35 2h34q220 0 332 -112q106 -106 106 -301q0 -98 -32 -176t-92 -132t-146 -83t-194 -29q-23 0 -45.5 1t-45.5 3z" />
<glyph unicode="&#xe08;" horiz-adv-x="803" d="M-20 670q84 81 179.5 122.5t209.5 41.5q184 0 293 -115q55 -57 82.5 -129.5t27.5 -163.5q0 -201 -137 -320q-72 -63 -166.5 -91.5t-212.5 -20.5l-98 409h-90v115h188l98 -412q65 4 119.5 30t93.5 69t60.5 99.5t21.5 121.5q0 64 -20.5 117.5t-58 92.5t-89.5 61t-116 22 q-160 0 -285 -125z" />
<glyph unicode="&#xe09;" horiz-adv-x="809" d="M10 352v115h185v-201q0 -38 14.5 -68.5t39.5 -52t59.5 -33.5t74.5 -12q45 0 85.5 14t78.5 40q78 52 78 129v262q0 39 -18.5 71t-49.5 55t-72 35.5t-86 12.5q-81 0 -149 -35q-76 -40 -98 -113h-123q27 122 139 195q104 65 231 65q73 0 133 -19.5t111 -57.5 q105 -84 105 -209v-545h-123v82q-94 -94 -248 -94q-68 0 -124 20t-96 56.5t-62.5 88t-22.5 113.5v86h-62z" />
<glyph unicode="&#xe0a;" horiz-adv-x="756" d="M61 35v784h123v-700q37 -11 74.5 -17t75.5 -4q61 2 111 19t84.5 47t53.5 70.5t19 89.5q0 221 -315 274l270 231l100 -55l-149 -135q217 -96 217 -315q0 -150 -100 -238q-54 -48 -126.5 -72t-166.5 -26q-142 -3 -271 47z" />
<glyph unicode="&#xe0b;" horiz-adv-x="786" d="M-23 748l78 81q31 -18 53.5 -35t36.5 -34l76 59h103v-176q0 -41 -56 -94q-53 -53 -53 -86v-344q37 -11 74 -17t76 -4q124 4 196 63t72 163q0 223 -305 276l260 229l100 -55l-149 -135q217 -96 217 -315q0 -149 -101 -238q-107 -95 -293 -98q-141 -3 -270 47v440 q0 47 53 94q56 50 56 82v21l-70 -54q-8 11 -17 20.5t-20 20.5q-25 25 -54 47t-63 42z" />
<glyph unicode="&#xe0c;" horiz-adv-x="1352" d="M61 0v655q123 179 349 179q149 0 243 -70q105 -77 105 -207v-274q0 -80 69 -129q35 -26 74 -40t82 -14q85 0 134.5 45.5t49.5 120.5v553h123v-553q0 -62 -21.5 -113.5t-60.5 -88.5t-93.5 -57.5t-121.5 -20.5q-135 0 -235 96v-82h-123v539q0 43 -16.5 76.5t-46.5 56.5 t-71.5 35t-90.5 12q-147 0 -226 -96v-510h123v-113h-246z" />
<glyph unicode="&#xe0d;" horiz-adv-x="1352" d="M61 0v655q123 179 349 179q149 0 243 -70q105 -77 105 -207v-117q0 -73 61 -112q53 -35 139 -35q43 0 81 12.5t66.5 35t45 53.5t16.5 69v356h123v-553q0 -122 -100 -203q-101 -77 -242 -77q-203 0 -323 141l88 78q94 -105 239 -105q89 0 148 43q26 20 40 46.5t19 58.5 q-12 -12 -34.5 -24.5t-50 -22.5t-58 -16.5t-58.5 -6.5q-71 0 -130.5 18t-102.5 51.5t-66.5 82t-23.5 110.5v99q0 43 -16.5 76.5t-46.5 56.5t-71.5 35t-90.5 12q-147 0 -226 -96v-510h123v-113h-246z" />
<glyph unicode="&#xe0e;" horiz-adv-x="840" d="M0 0v117h82v536q123 181 348 181q146 0 244 -72q104 -77 104 -211v-879h-123l-174 129l-174 -129h-307v117h281l202 141l172 -120v725q0 43 -16.5 77t-46.5 57.5t-71.5 35.5t-90.5 12q-147 0 -225 -96v-621h-205z" />
<glyph unicode="&#xe0f;" horiz-adv-x="840" d="M0 0v115h82v540q123 179 348 179q146 0 244 -72q104 -77 104 -207v-883h-123l-106 101l-115 -111l-112 113l-111 -103h-211v115h174l150 131l110 -115l113 115l108 -98v719q0 43 -16.5 76.5t-46.5 56.5t-71.5 35t-90.5 12q-147 0 -225 -96v-623h-205z" />
<glyph unicode="&#xe10;" horiz-adv-x="793" d="M-31 662q167 163 389 163q105 0 183 -37l92 103l102 -68l-92 -102q119 -113 119 -303q0 -199 -137 -318q-73 -63 -167 -91.5t-212 -20.5l-101 420h-88v104h189l98 -412q130 9 213 99q82 88 82 219q0 64 -20.5 118t-58 93t-90 60.5t-116.5 21.5q-78 0 -149.5 -31 t-134.5 -94zM0 -213h170l145 125l111 -109l113 109l102 -90v100l-31 41h154v-291h-123l-100 99l-115 -109l-113 111l-108 -101h-205v115z" />
<glyph unicode="&#xe11;" horiz-adv-x="840" d="M-14 748l80 81q26 -14 48 -30.5t42 -36.5l75 57h103v-180q0 -40 -66 -94q-63 -51 -63 -96v-187l313 563q61 0 109.5 -17t82 -47.5t51 -73.5t17.5 -95v-592h-123v594q0 94 -71 117l-391 -711h-111v467q0 57 63 104q66 51 66 80v21l-70 -49q-28 34 -155 125z" />
<glyph unicode="&#xe12;" horiz-adv-x="1397" d="M31 395q2 85 25 157.5t71 135.5q94 126 219 146l105 -101l94 92q59 0 106.5 -20t81.5 -55.5t52 -84t18 -106.5v-276q0 -80 69 -129q36 -26 74.5 -40t81.5 -14q85 0 134.5 45.5t49.5 120.5v553h123v-553q0 -62 -21 -113.5t-60 -88.5t-94 -57.5t-122 -20.5q-135 0 -235 96 v-82h-123v559q0 123 -88 154l-139 -138l-146 134q-55 -35 -98 -111q-52 -91 -55 -203q-5 -125 41 -200q52 -91 151 -91q74 0 121 62l90 -74q-65 -102 -209 -102q-77 0 -136.5 28.5t-100 81t-61 127.5t-19.5 168z" />
<glyph unicode="&#xe13;" horiz-adv-x="1352" d="M61 0v655q123 179 349 179q149 0 243 -70q105 -77 105 -207v-291q0 -75 49.5 -120.5t134.5 -45.5q43 0 82 14t74 40q69 49 69 129v536h123v-819h-123v82q-101 -96 -235 -96q-67 0 -121.5 20.5t-93.5 57.5t-60.5 88.5t-21.5 113.5v273q0 43 -16.5 76.5t-46.5 56.5 t-71.5 35t-90.5 12q-147 0 -226 -96v-510h123v-113h-246z" />
<glyph unicode="&#xe14;" horiz-adv-x="823" d="M31 389q2 91 30.5 168t85.5 143q119 134 289 134q228 0 326 -177v-657h-123v618q-59 101 -193 101q-129 0 -213 -105q-76 -94 -79 -225q-4 -120 45 -196q50 -89 147 -89q68 0 117 58l86 -76q-81 -96 -203 -96q-77 0 -136 28t-99 80t-60.5 125.5t-19.5 165.5z" />
<glyph unicode="&#xe15;" horiz-adv-x="864" d="M31 395q2 85 25 157.5t71 135.5q94 126 219 146l105 -101l94 92q59 0 106.5 -20t81.5 -55.5t52 -84t18 -106.5v-559h-123v559q0 123 -88 154l-139 -138l-146 134q-55 -35 -98 -111q-52 -91 -55 -203q-5 -125 41 -200q52 -91 151 -91q74 0 121 62l90 -74 q-65 -102 -209 -102q-77 0 -136.5 28.5t-100 81t-61 127.5t-19.5 168z" />
<glyph unicode="&#xe16;" horiz-adv-x="819" d="M61 0v655q123 179 349 179q149 0 243 -70q105 -77 105 -207v-557h-123v541q0 43 -16.5 76t-46.5 55.5t-71.5 34.5t-90.5 12q-148 0 -226 -94v-510h123v-115h-246z" />
<glyph unicode="&#xe17;" horiz-adv-x="819" d="M61 0v819h123v-84q108 99 254 99q70 0 129 -20.5t101.5 -57.5t66 -90t23.5 -117v-549h-123v535q0 42 -14.5 76t-40.5 58t-63.5 37t-82.5 13q-90 0 -170 -53t-80 -129v-537h-123z" />
<glyph unicode="&#xe18;" horiz-adv-x="754" d="M37 621q0 89 104 151q101 59 224 59q62 0 120 -16.5t105.5 -47.5t81.5 -75t47 -98h-133q-12 28 -35.5 51t-54.5 39t-67 24.5t-73 8.5q-67 0 -131 -29q-59 -27 -59 -61q0 -51 227 -84q332 -53 332 -285q0 -128 -115 -201q-103 -67 -266 -67q-72 0 -144.5 11t-148.5 34v364 l123 39v-315q81 -23 166 -23q105 0 176 37q84 40 84 121q0 136 -229 172q-170 28 -230 53q-104 47 -104 138z" />
<glyph unicode="&#xe19;" horiz-adv-x="819" d="M61 270v549h123v-534q0 -42 14.5 -76.5t40.5 -58.5t63.5 -37t82.5 -13t87.5 14t82.5 40q80 51 80 129v536h123v-819h-123v84q-54 -51 -118 -74.5t-136 -23.5q-71 0 -129.5 20t-101 57.5t-66 89.5t-23.5 117z" />
<glyph unicode="&#xe1a;" horiz-adv-x="819" d="M61 266v553h123v-553q0 -77 70 -123q32 -21 70 -32t86 -11q46 0 86.5 12t71.5 33.5t49 52t18 68.5v553h123v-553q0 -121 -105 -200q-51 -42 -111 -61t-132 -19q-143 0 -246 80q-103 79 -103 200z" />
<glyph unicode="&#xe1b;" horiz-adv-x="819" d="M61 266v553h123v-553q0 -77 70 -123q32 -21 70 -32t86 -11q46 0 86.5 12t71.5 33.5t49 52t18 68.5v769h123v-769q0 -121 -105 -200q-51 -42 -111 -61t-132 -19q-143 0 -246 80q-103 79 -103 200z" />
<glyph unicode="&#xe1c;" horiz-adv-x="1059" d="M0 819h270v-114h-114l123 -459l196 573h109l196 -573l154 573h125l-219 -819h-99l-213 618l-213 -618h-96z" />
<glyph unicode="&#xe1d;" horiz-adv-x="1059" d="M0 819h270v-114h-114l123 -459l196 573h109l196 -573l210 789h124l-274 -1035h-99l-213 618l-213 -618h-96z" />
<glyph unicode="&#xe1e;" horiz-adv-x="1059" d="M0 819h125l154 -573l196 573h109l196 -573l154 573h125l-219 -819h-99l-213 618l-213 -618h-96z" />
<glyph unicode="&#xe1f;" horiz-adv-x="1059" d="M0 819h125l154 -573l196 573h109l196 -573l212 789h124l-276 -1035h-99l-213 618l-213 -618h-96z" />
<glyph unicode="&#xe20;" horiz-adv-x="840" d="M0 0v115h82v540q123 179 348 179q150 0 244 -70q104 -77 104 -207v-557h-123v541q0 43 -16.5 76t-46.5 55.5t-71.5 34.5t-90.5 12q-149 0 -225 -94v-625h-205z" />
<glyph unicode="&#xe21;" horiz-adv-x="819" d="M61 0v819h123v-536q0 -78 80 -129q40 -26 82.5 -40t87.5 -14t82.5 13t63.5 37t40.5 58.5t14.5 76.5v534h123v-549q0 -65 -23.5 -117t-65.5 -89.5t-101 -57.5t-130 -20q-72 0 -136 23.5t-118 74.5v-84h-123z" />
<glyph unicode="&#xe22;" horiz-adv-x="817" d="M31 264q0 72 49 133q40 54 96 78q-25 9 -48 24t-40.5 35.5t-28 45t-10.5 51.5q0 43 20 79t55 62.5t82.5 41.5t102.5 15q70 0 133 -22v-113q-48 11 -81 16t-50 5q-135 0 -135 -84q0 -90 160 -90h106v-115h-88q-37 0 -72 -12t-62.5 -33.5t-44.5 -51t-17 -63.5q0 -38 18 -68 t51 -51.5t80 -33t105 -11.5q117 0 221 68v649h123v-696q-120 -135 -344 -135q-91 0 -162.5 20t-122.5 62q-96 76 -96 194z" />
<glyph unicode="&#xe23;" horiz-adv-x="772" d="M31 289h123q0 -96 73 -148q62 -43 160 -43q45 0 86 11t72 30.5t49 47.5t18 63q0 104 -225 127q-157 15 -231 49q-107 50 -107 154q0 105 98 176q97 73 230 73q68 0 127.5 -16.5t106 -47t77 -74t39.5 -97.5h-129q-43 121 -221 121q-39 0 -75.5 -10t-64.5 -27t-44.5 -38.5 t-16.5 -45.5q0 -87 236 -102q323 -23 323 -232q0 -129 -106 -205q-101 -71 -246 -71q-150 0 -244 75q-54 42 -81 98.5t-27 131.5z" />
<glyph unicode="&#xe24;" horiz-adv-x="819" d="M61 0v655q123 179 349 179q149 0 243 -70q105 -77 105 -207v-864h-123v848q0 43 -16.5 76t-46.5 55.5t-71.5 34.5t-90.5 12q-148 0 -226 -94v-510h123v-115h-246z" />
<glyph unicode="&#xe25;" horiz-adv-x="838" d="M31 254q0 130 98 225q102 96 270 96q157 0 254 -86v121q-9 22 -30 42t-49.5 35t-62.5 23.5t-69 8.5q-178 0 -243 -125h-131q19 58 54 102.5t83.5 75t108 46.5t126.5 16q132 0 226 -64q86 -56 110 -137v-633h-123v330q-15 28 -40.5 52.5t-58.5 41.5t-72.5 27t-82.5 10 q-56 0 -101 -16t-77 -43.5t-49.5 -65.5t-17.5 -82q0 -31 11 -58t30 -47.5t45 -32.5t57 -12q64 0 123 37l72 -88q-77 -63 -195 -63q-115 0 -193 78q-73 76 -73 186z" />
<glyph unicode="&#xe26;" horiz-adv-x="840" d="M0 0v115h82v540q123 179 348 179q150 0 244 -70q104 -77 104 -207v-864h-123v848q0 43 -16.5 76t-46.5 55.5t-71.5 34.5t-90.5 12q-149 0 -225 -94v-625h-205z" />
<glyph unicode="&#xe27;" horiz-adv-x="776" d="M31 254h125q64 -154 221 -154q119 0 186 97q29 43 44.5 96.5t15.5 116.5q0 124 -60 213q-68 96 -186 96q-159 0 -217 -154h-129q33 126 135 199q94 70 211 70q174 0 274 -127q94 -115 94 -297q0 -91 -23 -165t-71 -132q-100 -127 -274 -127q-117 0 -211 69 q-102 73 -135 199z" />
<glyph unicode="&#xe28;" horiz-adv-x="819" d="M61 0v549q0 118 107 201q100 75 242 75q84 0 147 -26l80 92l98 -68l-71 -82q94 -79 94 -192v-549h-123v549q0 37 -18 67t-49 51.5t-71.5 33.5t-86.5 12q-48 0 -86 -11t-70 -32q-70 -46 -70 -121v-80h258v-115h-258v-354h-123z" />
<glyph unicode="&#xe29;" horiz-adv-x="829" d="M61 266v553h123v-553q0 -77 70 -123q32 -21 70 -32t86 -11q46 0 86.5 12t71.5 33.5t49 52t18 68.5v109h-238v155l62 -41h176v330h123v-330h82v-114h-82v-109q0 -121 -105 -200q-51 -42 -111 -61t-132 -19t-131.5 19.5t-110.5 57.5q-107 83 -107 203z" />
<glyph unicode="&#xe2a;" horiz-adv-x="838" d="M31 254q0 130 98 225q102 96 270 96q157 0 254 -86v121q-9 22 -30 42t-49.5 35t-62.5 23.5t-69 8.5q-178 0 -243 -125h-131q19 58 54 102.5t83.5 75t108 46.5t126.5 16q45 0 84 -7.5t74 -21.5l78 86l100 -68q-17 -20 -35.5 -41t-38.5 -41q51 -44 74 -108v-633h-123v330 q-15 28 -40.5 52.5t-58.5 41.5t-72.5 27t-82.5 10q-56 0 -101 -16t-77 -43.5t-49.5 -65.5t-17.5 -82q0 -31 11 -58t30 -47.5t45 -32.5t57 -12q64 0 123 37l72 -88q-77 -63 -195 -63q-115 0 -193 78q-73 76 -73 186z" />
<glyph unicode="&#xe2b;" horiz-adv-x="829" d="M61 0v819h123v-272l420 282l139 -36l-186 -129q49 -9 90 -30.5t70 -52t45 -69.5t16 -82v-430h-123v410q0 39 -17 71.5t-46 56.5t-69 37t-85 13l-254 -176v-412h-123z" />
<glyph unicode="&#xe2c;" horiz-adv-x="1059" d="M0 819h125l154 -573l196 573h109l196 -573l82 305q5 14 6.5 27.5t1.5 25.5q0 109 -116 109h-70v106h113q135 0 159 86l22 69h125l-34 -118q-24 -89 -123 -123q53 -39 53 -112q0 -23 -4 -39l-155 -582h-99l-213 618l-213 -618h-96z" />
<glyph unicode="&#xe2d;" horiz-adv-x="893" d="M31 410q0 29 1.5 52.5t6.5 43.5h321v-115h-206q3 -64 26 -117.5t61.5 -92t90.5 -60t114 -21.5q64 0 118 23t93 64t60.5 98t21.5 125q0 67 -21 124t-59.5 98t-92.5 64t-120 23q-173 0 -258 -156h-133q114 271 391 271q189 0 302 -119q114 -120 114 -305q0 -186 -114 -306 q-114 -118 -302 -118q-187 0 -301 118q-114 120 -114 306z" />
<glyph unicode="&#xe2e;" horiz-adv-x="893" d="M31 410q0 29 1.5 52.5t6.5 43.5h321v-115h-206q3 -64 26 -117.5t61.5 -92t90.5 -60t114 -21.5q64 0 118 23t93 64t60.5 98t21.5 125q0 67 -21 124t-59.5 98t-92.5 64t-120 23q-173 0 -258 -156h-133q114 271 391 271q101 0 185 -39l84 96l94 -64l-82 -94 q135 -120 135 -323q0 -186 -114 -306q-114 -118 -302 -118q-187 0 -301 118q-114 120 -114 306z" />
<glyph unicode="&#xe2f;" horiz-adv-x="793" d="M20 676q0 78 74 143h160q-18 -8 -36 -23.5t-32.5 -34.5t-23 -40t-8.5 -39q0 -98 141 -98q217 0 303 131v104h123v-819h-123v569q-130 -94 -299 -94q-136 0 -211 60q-68 51 -68 141z" />
<glyph unicode="&#xe30;" horiz-adv-x="307" d="M31 102v136h123v-58h133v-78h-256zM31 582v135h123v-58h133v-77h-256z" />
<glyph unicode="&#xe31;" d="M-358 922v184h122v-82h431v-102h-553z" />
<glyph unicode="&#xe32;" horiz-adv-x="580" d="M10 662v129q77 43 193 43q156 0 239 -89q76 -75 76 -206v-539h-123v506q0 97 -50.5 155t-147.5 58t-187 -57z" />
<glyph unicode="&#xe33;" horiz-adv-x="580" d="M-240 1028q0 22 9 41.5t25 34t37.5 23t45.5 8.5q25 0 46 -8.5t37 -23t25 -34t9 -41.5t-9 -41.5t-25 -33.5t-37 -22.5t-46 -8.5q-24 0 -45.5 8.5t-37.5 22.5t-25 33.5t-9 41.5zM-170 1028q0 -43 47 -43t47 43t-47 43t-47 -43zM10 662v129q77 43 193 43q156 0 239 -89 q76 -75 76 -206v-539h-123v506q0 97 -50.5 155t-147.5 58t-187 -57z" />
<glyph unicode="&#xe34;" d="M-696 922v102h635v-102h-635z" />
<glyph unicode="&#xe35;" d="M-696 922v102h512v102h123v-204h-635z" />
<glyph unicode="&#xe36;" d="M-696 922v102h456v4q0 22 9 41.5t25 34t37.5 23t45.5 8.5q25 0 46 -8.5t37 -23t25 -34t9 -41.5t-9 -41.5t-25 -33.5t-37 -22.5t-46 -8.5h-573zM-170 1028q0 -43 47 -43t47 43t-47 43t-47 -43z" />
<glyph unicode="&#xe37;" d="M-696 922v102h348v102h102v-102h62v102h123v-204h-635z" />
<glyph unicode="&#xe38;" d="M-266 -82h205v-246h-123v144h-82v102z" />
<glyph unicode="&#xe39;" d="M-471 -82h184v-143q27 -13 47 -13q56 0 56 39v117h123v-123q0 -28 -14 -50.5t-38.5 -38.5t-57 -25t-69.5 -9q-108 0 -170 68v82h-61v96z" />
<glyph unicode="&#xe3a;" d="M-205 -164q0 16 6 31t17 26t26 18t33 7q16 0 31 -7t26 -18t18 -26t7 -31q0 -18 -7 -33t-18 -26t-26 -17t-31 -6q-35 0 -58.5 23.5t-23.5 58.5z" />
<glyph unicode="&#xe3f;" horiz-adv-x="743" d="M80 0v1081h147h43.5t30.5 -2v154h70v-164q239 -47 239 -285q0 -134 -102 -204q85 -22 141 -101q58 -79 58 -176q0 -146 -103 -225q-90 -72 -233 -78v-160h-70v160h-221zM211 121h119q248 0 248 190q0 185 -246 185h-121v-375zM211 602h51q54 0 94 8t66 25q67 40 67 147 q0 179 -223 179h-55v-359z" />
<glyph unicode="&#xe40;" horiz-adv-x="287" d="M82 0v819h123v-819h-123z" />
<glyph unicode="&#xe41;" horiz-adv-x="512" d="M82 0v819h123v-819h-123zM307 0v819h123v-819h-123z" />
<glyph unicode="&#xe42;" horiz-adv-x="307" d="M-45 1137q0 31 13 56t36.5 42t55 26t69.5 9h283v-117h-291q-37 0 -37 -18q0 -19 37 -43q49 -34 67 -60q37 -46 37 -114v-918h-123v903q0 64 -73 125q-74 62 -74 109z" />
<glyph unicode="&#xe43;" horiz-adv-x="307" d="M-121 1061q0 49 18 89.5t49 69t73 44.5t90 16q46 0 86.5 -14t70.5 -38t47 -56.5t17 -69.5q0 -51 -54 -105q-51 -51 -51 -102v-895h-123v915q0 61 52 107q53 47 53 76q0 71 -98 71q-107 0 -107 -108h-123z" />
<glyph unicode="&#xe44;" horiz-adv-x="307" d="M-127 1184l78 86l119 -105l118 95l146 -166q-54 -45 -81.5 -102.5t-27.5 -129.5v-862h-123v842q0 132 103 229l-35 37l-102 -86z" />
<glyph unicode="&#xe45;" horiz-adv-x="580" d="M10 662v129q77 43 193 43q156 0 239 -89q76 -75 76 -206v-846h-123v813q0 97 -50.5 155t-147.5 58t-187 -57z" />
<glyph unicode="&#xe46;" horiz-adv-x="817" d="M31 434v144q0 57 18.5 103.5t53 79.5t83.5 50.5t111 17.5l96 -81l96 81q61 0 110.5 -17.5t84.5 -50.5t53.5 -79.5t18.5 -103.5v-885h-123v885q0 110 -96 139l-142 -121l-145 121q-96 -29 -96 -139v-27h168v-117h-291z" />
<glyph unicode="&#xe47;" d="M-678 922v79q0 88 60 138.5t172 50.5h383v-82h-377q-115 0 -115 -78v-6h88l111 57l108 -57h119v-102h-125l-102 59l-103 -59h-219z" />
<glyph unicode="&#xe48;" d="M-184 1188v184h123v-184h-123z" />
<glyph unicode="&#xe49;" d="M-311 1305v77h80q94 0 94 -75v-23h246v-96h-363v76q0 41 -41 41h-16z" />
<glyph unicode="&#xe4a;" d="M-328 1188v94q0 113 121 113h39l72 -56l69 56h35q117 0 117 -103v-16h117v-88h-222v100q0 31 -22 31l-94 -72l-97 72q-30 0 -30 -33v-18h59v-80h-164z" />
<glyph unicode="&#xe4b;" d="M-270 1264v86h92v75h110v-75h93v-86h-93v-76h-110v76h-92z" />
<glyph unicode="&#xe4c;" d="M-256 1106v35q0 112 133 112h100v-77h-55q-61 0 -61 -50v-20h-117z" />
<glyph unicode="&#xe4d;" d="M-240 1028q0 22 9 41.5t25 34t37.5 23t45.5 8.5q25 0 46 -8.5t37 -23t25 -34t9 -41.5t-9 -41.5t-25 -33.5t-37 -22.5t-46 -8.5q-24 0 -45.5 8.5t-37.5 22.5t-25 33.5t-9 41.5zM-170 1028q0 -43 47 -43t47 43t-47 43t-47 -43z" />
<glyph unicode="&#xe4e;" d="M-547 1044q0 115 168 150q-39 22 -39 80q0 39 24 72t67.5 57t104 37.5t134.5 13.5q20 0 41 -1t41 -3v-107q-25 5 -49.5 8t-50.5 3q-42 0 -75 -5t-59 -16q-59 -21 -59 -61q0 -50 94 -41v-96q-35 3 -71.5 -0.5t-73.5 -14.5q-80 -24 -80 -65q0 -37 57 -37q52 0 107 31 l49 -84q-79 -43 -162 -43q-36 0 -67 9t-53.5 25t-35 38.5t-12.5 49.5z" />
<glyph unicode="&#xe4f;" horiz-adv-x="963" d="M61 410q0 174 123 297q125 122 297 122t297 -122q123 -123 123 -297t-123 -297t-297 -123t-297 123t-123 297zM123 410q0 -147 104 -254q108 -105 254 -105q148 0 252 105q107 107 107 254q0 148 -107 252q-103 106 -252 106q-148 0 -254 -106q-104 -107 -104 -252z M225 410q0 106 74 180q76 76 182 76t181 -76q75 -72 75 -180q0 -107 -75 -183q-73 -73 -181 -73q-106 0 -182 73q-37 39 -55.5 84t-18.5 99z" />
<glyph unicode="&#xe50;" horiz-adv-x="762" d="M31 307q0 66 25.5 121.5t76.5 103.5t113.5 71.5t134.5 23.5t134.5 -23.5t113.5 -71.5t76.5 -103.5t25.5 -121.5t-25.5 -121.5t-76.5 -103.5t-113.5 -71t-134.5 -23t-134.5 23t-113.5 71t-76.5 103.5t-25.5 121.5zM147 307q0 -87 68 -149t164 -62t164 62q67 61 67 149 q0 89 -67 150t-164 61t-164 -61q-68 -62 -68 -150z" />
<glyph unicode="&#xe51;" horiz-adv-x="811" d="M31 328q0 130 112 217q106 82 254 82q161 0 271 -84q112 -90 112 -232q0 -153 -139 -268q-127 -106 -297 -127l-59 104q155 17 260 95q112 81 112 196q0 46 -20 84t-54.5 65.5t-81.5 42.5t-102 15q-50 0 -94.5 -14.5t-78 -40t-53 -60.5t-19.5 -75q0 -24 7.5 -46.5 t21.5 -41.5t33.5 -33t43.5 -21q-29 41 -29 90q0 31 13 58t35.5 47.5t52 32.5t63.5 12t63.5 -12t52 -32.5t35.5 -47.5t13 -58q0 -43 -20.5 -80t-56.5 -64.5t-84 -43.5t-103 -16q-59 0 -107.5 19.5t-83 54t-54 81t-19.5 101.5zM332 276q0 -55 63 -55q64 0 64 55q0 56 -64 56 q-63 0 -63 -56z" />
<glyph unicode="&#xe52;" horiz-adv-x="1149" d="M-164 803l96 74q88 -79 148 -169t94 -190q29 -88 50.5 -187.5t33.5 -217.5h707v319q0 42 -28.5 66t-66.5 24q-63 0 -100 -55v-291h-123v295q-45 51 -112 51q-25 0 -47 -7t-38.5 -19.5t-26.5 -29t-13 -34.5h3.5t6.5 2h14q30 0 57 -10.5t47 -28.5t32 -43t12 -53t-12 -52 t-32 -42t-47 -28.5t-57 -10.5q-31 0 -57.5 10.5t-46.5 28.5t-31.5 42t-11.5 52v117q0 47 20 87t54 69.5t79 46t95 16.5q51 0 93.5 -15.5t80.5 -44.5q72 60 161 60q44 0 83.5 -14t69 -39.5t47 -61t17.5 -78.5v-442h-942q-24 300 -88 481q-62 179 -221 322zM379 299 q0 -51 55 -51t55 51t-55 51t-55 -51z" />
<glyph unicode="&#xe53;" horiz-adv-x="965" d="M61 137v281q0 87 78 153q79 64 180 64q110 0 185 -60q78 60 172 60q45 0 86.5 -14t72.5 -39t49.5 -60.5t18.5 -77.5v-444h-123v434q0 88 -104 88q-70 0 -111 -53v-469h-123v473q-42 49 -123 49q-26 0 -50 -8t-43 -22t-30.5 -33t-11.5 -41v-137q19 6 41 6q34 0 63.5 -12 t52 -32.5t35.5 -47.5t13 -58t-13 -57.5t-35.5 -46.5t-52 -31.5t-63.5 -11.5t-63.5 11.5t-52 31.5t-35.5 46.5t-13 57.5zM162 137q0 -55 63 -55q64 0 64 55q0 56 -64 56q-63 0 -63 -56z" />
<glyph unicode="&#xe54;" horiz-adv-x="872" d="M31 289q-3 139 104 231q54 48 118.5 71t139.5 23h283q84 0 84 230h123q3 -145 -43 -236q-55 -106 -164 -106h-283q-50 0 -94 -15.5t-76.5 -44t-51 -67.5t-17.5 -86q2 -48 19 -84t52 -62q32 -23 69.5 -35t82.5 -12q18 0 49 4.5t76 12.5q-72 66 -72 143q0 34 13.5 63t36 50 t52.5 33t64 12t63.5 -12t52 -32.5t35.5 -48.5t13 -59q0 -80 -74 -127h17t14 -2q110 -18 168 -70l-74 -88q-40 23 -83 35.5t-89 12.5q-17 0 -46 -5t-71 -14q-42 -8 -80 -12t-73 -4q-141 0 -232 73q-103 84 -106 228zM532 262q0 -55 64 -55q63 0 63 55t-63 55q-64 0 -64 -55z " />
<glyph unicode="&#xe55;" horiz-adv-x="872" d="M31 289q-2 57 16 106t55 94q72 84 187 111q-23 38 -23 72q0 31 14 59t37.5 49t54.5 33t66 12q36 0 67.5 -11.5t55 -32t36.5 -48.5t13 -61t-16 -58h82q53 0 72 76q9 43 12 154h123q2 -72 -10 -130t-35 -106q-52 -106 -162 -106h-283q-50 0 -94 -15.5t-76.5 -44t-51 -67.5 t-17.5 -86q2 -48 19 -84t52 -62q32 -23 69.5 -35t82.5 -12q18 0 49 4.5t76 12.5q-72 66 -72 143q0 34 13.5 63t36 50t52.5 33t64 12t63.5 -12t52 -32.5t35.5 -48.5t13 -59q0 -80 -74 -127h17t14 -2q110 -18 168 -70l-74 -88q-40 23 -83 35.5t-89 12.5q-17 0 -46 -5t-71 -14 q-42 -8 -80 -12t-73 -4q-141 0 -232 73q-101 84 -106 228zM377 672q0 -58 61 -58q62 0 62 58q0 23 -18.5 40t-43.5 17q-24 0 -42.5 -17t-18.5 -40zM532 262q0 -55 64 -55q63 0 63 55t-63 55q-64 0 -64 -55z" />
<glyph unicode="&#xe56;" horiz-adv-x="819" d="M-111 774l93 70q153 -119 200 -271q54 31 113 46.5t125 15.5q154 0 262 -90q54 -45 80 -102.5t26 -127.5q0 -142 -110 -237q-110 -92 -275 -92q-151 0 -247 75q-48 39 -72.5 82.5t-24.5 94.5q0 33 13 60.5t35.5 48t52.5 31.5t65 11q34 0 63.5 -12t52 -32t35.5 -47t13 -58 q0 -84 -76 -127q19 -8 41.5 -11.5t48.5 -3.5q55 0 103 16t83.5 44.5t56 68.5t20.5 88q0 44 -19.5 81.5t-53.5 65t-78.5 43t-94.5 15.5q-132 0 -242 -98l-98 24q-35 188 -191 328zM162 240q0 -58 63 -58q64 0 64 58q0 57 -64 57q-63 0 -63 -57z" />
<glyph unicode="&#xe57;" horiz-adv-x="1198" d="M61 139v277q0 89 78 155q79 64 180 64q110 0 185 -60q78 60 172 60q45 0 86.5 -14t72.5 -39.5t49.5 -61t18.5 -78.5v-336q18 0 38 6.5t36 19.5t26.5 30.5t10.5 40.5v413q0 128 127 228l98 -70q-102 -62 -102 -166v-399q0 -52 -25.5 -94t-72.5 -70.5t-112.5 -42.5 t-146.5 -10v440q0 21 -8.5 38t-23 28.5t-33 17.5t-39.5 6q-71 0 -111 -55v-467h-123v471q-44 51 -123 51q-26 0 -50 -8.5t-43 -22.5t-30.5 -33.5t-11.5 -41.5v-131q23 4 41 4q34 0 63.5 -12t52 -32.5t35.5 -47.5t13 -58q0 -32 -13 -59t-35.5 -47t-52 -31.5t-63.5 -11.5 t-63.5 11.5t-52 31.5t-35.5 47t-13 59zM162 139q0 -55 63 -55q64 0 64 55q0 56 -64 56q-63 0 -63 -56z" />
<glyph unicode="&#xe58;" horiz-adv-x="899" d="M31 291q0 151 127 248q118 88 303 88q66 0 121.5 -6t103.5 -17q29 51 46.5 109.5t25.5 130.5l119 -19q-14 -103 -48.5 -189t-91.5 -161q-123 43 -256 43q-71 0 -131 -18t-103.5 -48.5t-68 -72t-24.5 -88.5q0 -63 43 -115q17 -23 36.5 -38t40.5 -23l138 129l188 -152 l53 31q-94 30 -94 117q0 28 12 53.5t32.5 44.5t47.5 30t58 11t58 -12t47 -31.5t32 -45.5t12 -54q0 -131 -276 -256l-168 131l-127 -131q-106 28 -176 104q-42 43 -61 95t-19 112zM653 240q0 -50 56 -50q55 0 55 50q0 53 -55 53q-56 0 -56 -53z" />
<glyph unicode="&#xe59;" horiz-adv-x="963" d="M31 317q0 141 98 230q51 46 110 69t132 23q135 0 235 -88q58 88 160 88q23 0 47 -6.5t47 -20.5q31 98 14 232h125q2 -16 3.5 -31t1.5 -31q0 -216 -113 -329l-64 18q-6 53 -61 53q-61 0 -70 -73q57 -85 92 -196t52 -249l-123 -16q-68 534 -346 534q-46 0 -85.5 -16 t-69 -44.5t-46 -66.5t-16.5 -82q0 -137 94 -194q-10 23 -10 49q0 31 13 59t35 48.5t51.5 32.5t63.5 12t64 -12t52 -32.5t35 -48.5t13 -59q0 -40 -18.5 -73.5t-49 -57.5t-71 -37.5t-84.5 -13.5q-152 0 -233 100q-78 93 -78 229zM340 170q0 -57 61 -57q62 0 62 57t-62 57 q-61 0 -61 -57z" />
<glyph unicode="&#xe5a;" horiz-adv-x="1008" d="M20 676q0 72 74 143h160q-18 -6 -35.5 -21.5t-32 -35t-23.5 -41t-9 -39.5q0 -98 141 -98q211 0 303 131v104h123v-170q75 40 102 86v84h123v-819h-123v590q-34 -23 -59.5 -37t-42.5 -21v-532h-123v569q-130 -94 -299 -94q-115 0 -188 43q-91 52 -91 158z" />
<glyph unicode="&#xe5b;" horiz-adv-x="1499" d="M61 416q0 132 62 233q70 123 194 123q98 0 162 -82q58 -76 58 -178q0 -77 -31 -133q-41 -68 -111 -68q-27 0 -50 11.5t-39 31t-25 44.5t-9 53q0 60 33.5 98.5t87.5 38.5h14.5t14.5 -2q-21 94 -103 94t-122 -102q-17 -39 -25 -80.5t-8 -89.5q0 -103 41 -177 q53 -86 147 -86q120 0 193 136q55 95 73 239q11 86 58 86q68 0 104 -176q2 23 4.5 47t6.5 47q9 62 43 62q55 0 102 -129q0 92 39 92q26 0 49.5 -27.5t46.5 -81.5q18 78 49 78q25 0 72 -69q12 38 41 38q240 0 240 -53q0 -28 -107 -43l-123 -8q-15 -55 -47 -55q-14 0 -33 30 q-6 11 -12 22.5t-14 22.5q-16 -100 -62 -100q-24 0 -74 98q-21 -120 -67 -120q-24 0 -43 57q-8 20 -14.5 39t-12.5 39q-39 -160 -98 -160q-31 0 -49 66l-25 98q-34 -149 -117 -244q-95 -117 -235 -117q-137 0 -213 115q-32 51 -49 110t-17 132zM344 453q0 -64 49 -64t49 64 q0 63 -49 63t-49 -63z" />
<glyph unicode="&#x2000;" horiz-adv-x="799" />
<glyph unicode="&#x2001;" horiz-adv-x="1599" />
<glyph unicode="&#x2002;" horiz-adv-x="799" />
<glyph unicode="&#x2003;" horiz-adv-x="1599" />
<glyph unicode="&#x2004;" horiz-adv-x="533" />
<glyph unicode="&#x2005;" horiz-adv-x="399" />
<glyph unicode="&#x2006;" horiz-adv-x="266" />
<glyph unicode="&#x2007;" horiz-adv-x="266" />
<glyph unicode="&#x2008;" horiz-adv-x="199" />
<glyph unicode="&#x2009;" horiz-adv-x="319" />
<glyph unicode="&#x200a;" horiz-adv-x="88" />
<glyph unicode="&#x200c;" />
<glyph unicode="&#x200d;" />
<glyph unicode="&#x2010;" horiz-adv-x="457" d="M72 317v103h313v-103h-313z" />
<glyph unicode="&#x2011;" horiz-adv-x="457" d="M72 317v103h313v-103h-313z" />
<glyph unicode="&#x2012;" horiz-adv-x="457" d="M72 317v103h313v-103h-313z" />
<glyph unicode="&#x2013;" horiz-adv-x="799" d="M61 317v103h676v-103h-676z" />
<glyph unicode="&#x2014;" horiz-adv-x="1597" d="M61 317v103h1475v-103h-1475z" />
<glyph unicode="&#x2018;" horiz-adv-x="373" d="M82 842q0 143 168 241l29 -36q-102 -56 -123 -146q8 5 19.5 6.5t25.5 1.5q18 0 34 -7.5t28.5 -20t20 -28.5t7.5 -34t-7.5 -35t-21 -30t-31 -21t-38.5 -8q-25 0 -45.5 10t-35 26t-22.5 37t-8 44z" />
<glyph unicode="&#x2019;" horiz-adv-x="373" d="M82 989q0 18 7.5 35t21 30t31 21t38.5 8q25 0 45.5 -10t35 -26t22.5 -37t8 -43q0 -145 -168 -242l-29 37q102 56 123 145q-8 -5 -19.5 -6.5t-25.5 -1.5q-18 0 -34 7.5t-28.5 20t-20 28.5t-7.5 34z" />
<glyph unicode="&#x201c;" horiz-adv-x="664" d="M82 842q0 143 168 241l29 -36q-102 -56 -123 -146q8 5 19.5 6.5t25.5 1.5q18 0 34 -7.5t28.5 -20t20 -28.5t7.5 -34t-7.5 -35t-21 -30t-31 -21t-38.5 -8q-25 0 -45.5 10t-35 26t-22.5 37t-8 44zM373 842q0 143 168 241l28 -36q-101 -56 -123 -146q16 8 46 8q18 0 34 -7.5 t28.5 -20t20 -28.5t7.5 -34t-7.5 -35t-21 -30t-31.5 -21t-39 -8q-24 0 -44.5 10t-35 26t-22.5 37t-8 44z" />
<glyph unicode="&#x201d;" horiz-adv-x="664" d="M82 989q0 18 7.5 35t21 30t31 21t38.5 8q25 0 45.5 -10t35 -26t22.5 -37t8 -43q0 -145 -168 -242l-29 37q102 56 123 145q-8 -5 -19.5 -6.5t-25.5 -1.5q-18 0 -34 7.5t-28.5 20t-20 28.5t-7.5 34zM373 989q0 18 7.5 35t21 30t31 21t38.5 8q25 0 45.5 -10t35 -26t22.5 -37 t8 -43q0 -143 -168 -242l-29 37q102 56 123 145q-8 -5 -19.5 -6.5t-25.5 -1.5q-18 0 -34 7.5t-28.5 20t-20 28.5t-7.5 34z" />
<glyph unicode="&#x2022;" horiz-adv-x="737" d="M61 410q0 126 91 217q90 90 217 90q125 0 217 -90q90 -92 90 -217q0 -127 -90 -217q-91 -91 -217 -91q-129 0 -217 91q-91 88 -91 217z" />
<glyph unicode="&#x2026;" horiz-adv-x="1118" d="M102 74q0 35 24.5 59.5t59.5 24.5t59.5 -24.5t24.5 -59.5t-24.5 -59.5t-59.5 -24.5t-59.5 24.5t-24.5 59.5zM475 74q0 35 24.5 59.5t59.5 24.5t59.5 -24.5t24.5 -59.5t-24.5 -59.5t-59.5 -24.5t-59.5 24.5t-24.5 59.5zM848 74q0 35 24.5 59.5t59.5 24.5t59.5 -24.5 t24.5 -59.5t-24.5 -59.5t-59.5 -24.5t-59.5 24.5t-24.5 59.5z" />
<glyph unicode="&#x202f;" horiz-adv-x="319" />
<glyph unicode="&#x205f;" horiz-adv-x="399" />
<glyph unicode="&#x2122;" horiz-adv-x="1341" d="M49 989v92h492v-92h-197v-512h-96v512h-199zM639 477v604h147l168 -440l168 440h150v-604h-96v500l-195 -500h-59l-187 490v-490h-96z" />
<glyph unicode="&#x25fc;" horiz-adv-x="670" d="M0 0v670h670v-670h-670z" />
<glyph unicode="&#xf700;" horiz-adv-x="793" d="M-31 662q167 163 389 163q105 0 183 -37l92 103l102 -68l-92 -102q119 -113 119 -303q0 -199 -137 -318q-73 -63 -167 -91.5t-212 -20.5l-101 420h-88v104h189l98 -412q130 9 213 99q82 88 82 219q0 64 -20.5 118t-58 93t-90 60.5t-116.5 21.5q-78 0 -149.5 -31 t-134.5 -94z" />
<glyph unicode="&#xf701;" d="M-860 922v102h594v-102h-594z" />
<glyph unicode="&#xf702;" d="M-860 922v102h471v102h123v-204h-594z" />
<glyph unicode="&#xf703;" d="M-860 922v102h416v4q0 22 9 41.5t24.5 34t37 23t45.5 8.5q25 0 46 -8.5t37 -23t25 -34t9 -41.5t-9 -41.5t-25 -33.5t-37 -22.5t-46 -8.5h-532zM-375 1028q0 -43 47 -43t47 43t-47 43t-47 -43z" />
<glyph unicode="&#xf704;" d="M-860 922v102h307v102h102v-102h62v102h123v-204h-594z" />
<glyph unicode="&#xf705;" d="M-410 922v225h123v-225h-123z" />
<glyph unicode="&#xf706;" d="M-449 1044v82h84q101 0 101 -77v-25h299v-102h-422v79q0 43 -43 43h-19z" />
<glyph unicode="&#xf707;" d="M-786 922v112q0 135 145 135h47l86 -65l82 65h43q139 0 139 -122v-23h244v-102h-369v120q0 37 -26 37l-113 -86l-117 86q-37 0 -37 -39v-22h72v-96h-196z" />
<glyph unicode="&#xf708;" d="M-571 1008v94h102v86h123v-86h102v-94h-102v-86h-123v86h-102z" />
<glyph unicode="&#xf709;" d="M-489 922v36q0 119 139 119h106v-82h-59q-64 0 -64 -51v-22h-122z" />
<glyph unicode="&#xf70a;" d="M-184 922v225h123v-225h-123z" />
<glyph unicode="&#xf70b;" d="M-395 1044v82h84q100 0 100 -77v-25h258v-102h-381v79q0 43 -43 43h-18z" />
<glyph unicode="&#xf70c;" d="M-694 922v112q0 135 145 135h47l86 -65l82 65h43q139 0 139 -122v-23h142v-102h-266v120q0 37 -27 37l-113 -86l-116 86q-37 0 -37 -39v-22h71v-96h-196z" />
<glyph unicode="&#xf70d;" d="M-287 1008v94h103v86h123v-86h102v-94h-102v-86h-123v86h-103z" />
<glyph unicode="&#xf70e;" d="M-266 922v36q0 119 139 119h107v-82h-60q-63 0 -63 -51v-22h-123z" />
<glyph unicode="&#xf70f;" horiz-adv-x="1352" d="M61 0v655q123 179 349 179q149 0 243 -70q105 -77 105 -207v-301q0 -37 15.5 -66t43 -49t65 -30.5t81.5 -10.5q43 0 80.5 10.5t65 30.5t43 49t15.5 66v563h123v-563q0 -122 -94 -197q-94 -73 -233 -73q-140 0 -234 73q-94 75 -94 197v283q0 43 -16.5 76.5t-46.5 56.5 t-71.5 35t-90.5 12q-147 0 -226 -96v-510h123v-113h-246z" />
<glyph unicode="&#xf710;" d="M-479 922v184h123v-82h430v-102h-553z" />
<glyph unicode="&#xf711;" d="M-444 1028q0 22 9 41.5t24.5 34t37 23t45.5 8.5q25 0 46 -8.5t37 -23t25 -34t9 -41.5t-9 -41.5t-25 -33.5t-37 -22.5t-46 -8.5q-24 0 -45.5 8.5t-37 22.5t-24.5 33.5t-9 41.5zM-375 1028q0 -43 47 -43t47 43t-47 43t-47 -43z" />
<glyph unicode="&#xf712;" d="M-795 922v79q0 88 60 138.5t172 50.5h383v-82h-377q-115 0 -115 -78v-6h88l111 57l108 -57h119v-102h-125l-102 59l-102 -59h-220z" />
<glyph unicode="&#xf713;" d="M-389 1188v184h123v-184h-123z" />
<glyph unicode="&#xf714;" d="M-446 1305v77h79q95 0 95 -75v-23h245v-96h-362v76q0 41 -41 41h-16z" />
<glyph unicode="&#xf715;" d="M-446 1188v94q0 113 120 113h39l72 -56l70 56h34q117 0 117 -103v-16h117v-88h-221v100q0 31 -23 31l-94 -72l-96 72q-31 0 -31 -33v-18h59v-80h-163z" />
<glyph unicode="&#xf716;" d="M-475 1264v86h92v75h111v-75h92v-86h-92v-76h-111v76h-92z" />
<glyph unicode="&#xf717;" d="M-440 1106v35q0 112 133 112h100v-77h-55q-62 0 -62 -50v-20h-116z" />
<glyph unicode="&#xf718;" d="M-266 -389h205v-246h-123v143h-82v103z" />
<glyph unicode="&#xf719;" d="M-471 -389h184v-143q25 -13 47 -13q56 0 56 39v117h123v-123q0 -28 -14 -50.5t-38.5 -38.5t-57 -25t-69.5 -9q-108 0 -170 68v82h-61v96z" />
<glyph unicode="&#xf71a;" d="M-225 -471q0 16 6 31t17 26t26 18t33 7q16 0 31 -7t26 -18t18 -26t7 -31q0 -18 -7 -33t-18 -26t-26 -17t-31 -6q-35 0 -58.5 23.5t-23.5 58.5z" />
<glyph unicode="&#xf71d;" />
<glyph unicode="&#xf880;" />
<glyph horiz-adv-x="580" d="M-444 1028q0 22 9 41.5t24.5 34t37 23t45.5 8.5q25 0 46 -8.5t37 -23t25 -34t9 -41.5t-9 -41.5t-25 -33.5t-37 -22.5t-46 -8.5q-24 0 -45.5 8.5t-37 22.5t-24.5 33.5t-9 41.5zM-375 1028q0 -43 47 -43t47 43t-47 43t-47 -43zM10 662v129q77 43 193 43q156 0 239 -89 q76 -75 76 -206v-539h-123v506q0 97 -50.5 155t-147.5 58t-187 -57z" />
<glyph d="M-602 1044q0 115 168 150q-39 22 -39 80q0 39 24 72t67.5 57t104 37.5t134.5 13.5q20 0 41 -1t41 -3v-107q-25 5 -50 8t-51 3q-40 0 -73.5 -5t-59.5 -16q-59 -21 -59 -61q0 -50 94 -41v-96q-35 3 -71.5 -0.5t-74.5 -14.5q-79 -24 -79 -65q0 -37 57 -37q54 0 106 31 l50 -84q-79 -43 -162 -43q-36 0 -67 9t-53.5 25t-35 38.5t-12.5 49.5z" />
<glyph />
<glyph />
<glyph d="M-860 922v102h307v102h102v-102h62v102h123v-204h-594zM-471 1188v184h123v-184h-123z" />
<glyph d="M-823 922v102h594v-102h-594z" />
<glyph d="M-823 922v102h471v102h123v-204h-594z" />
</font>
</defs>
</svg>
